<svg xmlns="http://www.w3.org/2000/svg" viewBox="0 0 64 64" width="64" height="64" role="img" aria-label="pastepost">
  <title>pastepost</title>
  <rect x="2" y="2" width="60" height="60" rx="15" fill="#fafafa" stroke="#131316" stroke-opacity="0.16" stroke-width="1.5"/>
  <g fill="#131316">
    <path d="M15 15 a3 3 0 0 1 3-3 h19 l12 12 v25 a3 3 0 0 1 -3 3 h-28 a3 3 0 0 1 -3-3 Z"/>
    <path d="M37 12 h9 a3 3 0 0 1 3 3 v9 Z"/>
  </g>
  <path d="M37 12 L49 24" stroke="#fafafa" stroke-width="2.6"/>
  <g fill="#fafafa">
    <rect x="21" y="31" width="22" height="4" rx="2"/>
    <rect x="21" y="39" width="15" height="4" rx="2"/>
  </g>
</svg>
